HIERARCHY
ROOT Hips
{
  OFFSET 0 0 0
  CHANNELS 6 Xposition Yposition Zposition Zrotation Yrotation Xrotation
  JOINT LeftThigh
  {
    OFFSET 8.409438 0 -5.917753
    CHANNELS 3 Zrotation Yrotation Xrotation
    JOINT LeftLeg
    {
      OFFSET 0 0 -42.358652
      CHANNELS 3 Zrotation Yrotation Xrotation
      JOINT LeftFoot
      {
        OFFSET 0 0 -39.357303
        CHANNELS 3 Zrotation Yrotation Xrotation
      }
    }
  }
  JOINT RightThigh
  {
    OFFSET -8.409438 0 -5.917753
    CHANNELS 3 Zrotation Yrotation Xrotation
    JOINT RightLeg
    {
      OFFSET 0 0 -42.358652
      CHANNELS 3 Zrotation Yrotation Xrotation
      JOINT RightFoot
      {
        OFFSET 0 0 -39.357303
        CHANNELS 3 Zrotation Yrotation Xrotation
      }
    }
  }
  JOINT SpineLow
  {
    OFFSET 0 0 4.719101
    CHANNELS 3 Zrotation Yrotation Xrotation
    JOINT SpineMid
    {
      OFFSET 0 0 12.899191
      CHANNELS 3 Zrotation Yrotation Xrotation
      JOINT Chest
      {
        OFFSET 0 0 12.899191
        CHANNELS 3 Zrotation Yrotation Xrotation
        JOINT LeftShoulder
        {
          OFFSET 7.550562 1.41573 9.438202
          CHANNELS 3 Zrotation Yrotation Xrotation
          JOINT LeftArm
          {
            OFFSET 9.155056 0 4.247191
            CHANNELS 3 Zrotation Yrotation Xrotation
            JOINT LeftForearm
            {
              OFFSET 0 0 25.771955
              CHANNELS 3 Zrotation Yrotation Xrotation
              JOINT LeftHand
              {
                OFFSET 0 0 25.197169
                CHANNELS 3 Zrotation Yrotation Xrotation
              }
            }
          }
        }
        JOINT RightShoulder
        {
          OFFSET -7.550562 1.41573 9.438202
          CHANNELS 3 Zrotation Yrotation Xrotation
          JOINT RightArm
          {
            OFFSET -9.155056 0 4.247191
            CHANNELS 3 Zrotation Yrotation Xrotation
            JOINT RightForearm
            {
              OFFSET 0 0 -25.771955
              CHANNELS 3 Zrotation Yrotation Xrotation
              JOINT RightHand
              {
                OFFSET 0 0 -25.197169
                CHANNELS 3 Zrotation Yrotation Xrotation
              }
            }
          }
        }
        JOINT Neck
        {
          OFFSET 0 0 15.101124
          CHANNELS 3 Zrotation Yrotation Xrotation
          JOINT Head
          {
            OFFSET 0 0 11.325843
            CHANNELS 3 Zrotation Yrotation Xrotation
            End Site
            {
              OFFSET 0 0 14.157303
            }
          }
        }
      }
    }
  }
}
MOTION
Frames: 14
Frame Time: 0.0
0.0  89.887642  0.0  8.393764  -38.397882  -100.702665  10.398852  -10.247576  -0.027365  6.327396  8.590676  29.193351  3.63243  0.88682  2.874557  -9.378904  14.861758  -11.690914  -1.995526  4.870045  9.500485  4.644501  0.722812  -2.260413  -2.785078  1.629678  0.693903  -7.576103  4.527315  1.708536  -7.576103  4.527315  1.708536  -23.993796  11.737154  -7.090564  147.365728  34.278304  -157.013122  -31.82363  29.651963  106.156046  61.599374  20.666595  -17.700735  6.903615  -3.756741  8.586162  76.360983  22.159064  27.691047  3.83391  14.635333  -63.327054  100.759382  -19.944843  1.453171  19.255214  -0.203317  2.979818  14.442796  -0.058619  2.243916  
0.0  89.887642  0.0  7.098861  -33.344649  -98.903655  9.633819  -11.189608  -2.138371  5.112037  9.441968  29.846534  2.691504  0.84436  2.722703  -10.883803  15.142324  -11.65931  -3.553114  5.178323  10.55684  4.216562  0.908399  -2.312312  -3.117752  1.278309  0.84258  -8.483999  3.595572  2.135906  -8.483998  3.595572  2.135906  -22.55579  12.556383  -7.464776  147.572069  35.237508  -157.041883  -30.551458  24.195543  109.08258  64.016969  24.185562  -7.615957  3.934425  -1.772913  7.278227  77.626502  19.592226  30.781723  1.478656  7.468343  -70.851413  98.94782  -17.868133  -1.390213  17.226944  0.699957  2.462921  12.917481  0.594996  1.829154  
0.0  89.887642  0.0  6.23493  -27.957787  -96.946647  8.373588  -11.84021  -4.846614  4.076634  10.559694  30.737662  1.443123  0.655303  2.489775  -12.948499  15.591022  -12.475345  -5.101198  5.447867  12.080072  3.955166  1.112575  -2.388753  -3.196154  0.992073  0.834004  -8.705782  2.816066  2.14527  -8.705782  2.816066  2.145269  -21.052628  13.525777  -7.131161  147.920587  36.489418  -157.362833  -28.624999  18.450327  112.388562  66.804829  23.93012  1.100739  1.248048  0.282715  8.04767  77.14912  17.621261  32.872389  -0.705439  0.225567  -78.799124  97.081937  -15.736936  -5.959086  14.119761  1.077033  2.119839  10.585927  0.857319  1.565931  
0.0  89.887642  0.0  5.644573  -22.353753  -94.866219  6.505534  -12.378145  -8.064271  2.960957  12.164193  31.846291  0.918144  0.529918  2.366548  -15.569695  15.9296  -13.786367  -6.18621  5.767349  13.853221  3.758204  1.354269  -2.532876  -3.171699  0.650897  0.744139  -8.650669  1.872945  1.945209  -8.650669  1.872945  1.945209  -18.949373  15.064716  -6.547438  149.18011  38.858761  -157.700245  -21.632289  13.013994  116.477039  69.128103  18.569582  2.54154  -1.345771  2.748093  8.548406  73.850573  14.826618  34.964778  -2.167956  -2.54839  -88.236935  93.099045  -13.522548  -14.944015  10.556365  1.503161  1.807052  7.912458  1.159009  1.329709  
0.0  89.887642  0.0  5.081034  -16.956399  -92.84885  4.410439  -13.037368  -11.336771  1.934606  14.021126  33.057083  1.138528  0.398063  2.277627  -17.792523  15.761933  -14.914625  -10.058026  6.554496  15.047726  6.548392  2.195502  -2.485488  -2.997417  0.439452  0.288102  -8.188646  1.234731  0.731776  -8.188646  1.234731  0.731776  -16.00281  16.33397  -3.177207  152.505798  41.036705  -156.947406  -19.054986  6.489081  116.919422  69.776792  9.33668  5.735636  -3.469543  4.830319  13.360452  66.311244  13.980633  36.541746  1.200139  -3.514429  -95.989115  88.831868  -8.106037  -23.646192  6.740221  1.305724  2.664774  5.049368  1.008851  1.984376  
0.0  89.887642  0.0  4.56704  -11.987377  -91.249589  2.71766  -14.055855  -14.353778  1.179418  15.972627  34.556905  1.345582  0.098574  2.136139  -18.685013  15.1736  -15.493674  -11.392302  7.693804  16.752707  6.410432  2.320339  -2.810026  -2.480797  0.442385  0.079028  -6.780262  1.215853  0.170423  -6.780262  1.215853  0.170423  -14.856451  15.4547  -0.19645  158.311347  42.882928  -154.700262  -15.276924  2.335055  117.050894  70.352369  4.994859  5.419994  -5.769772  4.505414  17.827673  56.542402  14.171609  38.869535  5.361248  -5.68069  -104.901672  86.177389  -3.060658  -32.818864  1.995549  0.525573  2.740043  1.49433  0.403141  2.053327  
0.0  89.887642  0.0  3.791416  -9.019905  -90.317323  3.230725  -15.684996  -17.194593  0.780813  17.576204  36.676242  0.854191  -0.265758  1.77937  -15.394912  15.163143  -14.739608  -14.979922  8.405449  18.304506  5.629258  1.800072  -2.758796  -1.71453  0.410613  0.29822  -4.681779  1.142837  0.785654  -4.681779  1.142837  0.785654  -13.908532  13.915467  0.901553  163.745625  44.968085  -152.295245  -11.79418  0.474872  115.02887  70.645696  7.460564  -0.007939  -8.056465  2.732775  19.451988  48.986696  14.843963  42.837177  10.877199  -9.651759  -109.183699  84.372878  6.842561  -40.01064  -2.410375  -0.21095  1.547435  -1.807259  -0.16432  1.159764  
0.0  89.887642  0.0  2.922582  -7.164003  -90.738744  4.679622  -16.433665  -17.550168  -0.349391  17.679602  37.363928  -0.439497  -0.396116  1.384304  -14.041676  15.113168  -14.06696  -16.12478  8.60987  20.430807  4.836216  1.976323  -2.748149  -0.695521  0.18345  0.853618  -1.894427  0.525867  2.327827  -1.894427  0.525867  2.327827  -14.329938  13.724224  0.278429  168.217056  47.36879  -150.645152  -8.804835  -0.108188  109.824293  72.135764  9.895071  -6.941604  -12.535722  4.749306  21.23433  47.725265  13.883763  44.304398  15.822844  -16.594368  -114.530575  82.707007  11.381824  -42.741315  -6.964186  -0.339211  -0.364728  -5.223329  -0.250291  -0.277454  
0.0  89.887642  0.0  2.312179  -6.155871  -92.384877  6.249318  -17.230404  -15.789078  -1.997005  18.170357  36.663567  -1.589638  -0.382506  1.177788  -12.509747  15.413762  -12.829491  -17.358035  9.017969  22.820932  4.092269  2.277412  -2.574746  0.035788  -0.237986  1.364576  0.084363  -0.652291  3.729691  0.084363  -0.652291  3.729691  -13.908637  15.897116  -0.184554  173.608998  49.79976  -149.658491  -7.417174  -0.902473  103.075961  74.128986  8.704669  -9.384095  -13.462393  9.249107  23.593966  47.925429  11.765696  45.038671  22.539941  -21.846324  -119.475082  76.562319  10.588203  -43.72649  -9.913639  0.493779  -1.886196  -7.433745  0.401065  -1.407066  
0.0  89.887642  0.0  2.089102  -4.594544  -93.307746  6.392923  -18.141456  -14.450405  -3.496312  19.744706  35.589854  -1.76857  -0.490862  0.900499  -13.192541  15.411097  -13.01063  -17.966474  10.074887  25.270194  3.703008  2.644855  -2.64072  -0.065161  -0.660634  1.462231  -0.218026  -1.801077  3.999551  -0.218026  -1.801076  3.999552  -10.694631  19.096824  -0.711679  178.393304  51.166385  -150.359338  -7.089378  -2.833278  94.836064  77.118446  6.771153  -5.340057  -11.08621  12.031259  25.834436  48.066144  12.731144  47.495967  30.365789  -25.010452  -122.83078  67.703368  8.131954  -43.735385  -10.211658  1.771649  -2.514335  -7.650999  1.371232  -1.856601  
0.0  89.887642  0.0  1.7511  -2.826571  -94.814904  4.890756  -18.909756  -12.833351  -3.719273  21.019306  35.46001  -1.522935  -0.820839  0.41706  -15.824466  15.267835  -13.038078  -17.22138  11.415339  27.552645  3.784451  2.743581  -2.782554  -0.475839  -0.909522  1.70825  -1.364733  -2.450934  4.689009  -1.364733  -2.450934  4.689009  -7.438071  20.882427  -3.02713  -179.64948  50.997636  -151.449393  -3.389924  -6.926942  82.260151  81.496416  5.400346  -0.220252  -9.603714  14.536792  25.745958  51.498495  13.506173  49.324958  36.992105  -28.464667  -124.274565  62.409088  6.644581  -39.902024  -9.580231  2.292312  -2.9551  -7.173329  1.766118  -2.180711  
0.0  89.887642  0.0  1.171374  -1.917132  -95.092081  3.415065  -19.089321  -12.706838  -2.410491  21.003939  35.970826  -1.241668  -1.069713  0.391642  -19.159191  14.632675  -14.695507  -14.855101  12.407908  29.935626  4.30445  2.897668  -2.740351  -0.690373  -1.110279  1.845378  -1.971768  -2.979823  5.078574  -1.971768  -2.979823  5.078574  -4.342657  22.506887  -3.100635  177.345536  50.273961  -148.51642  3.669258  -11.05722  65.131049  85.554825  7.303319  0.651102  -8.36606  15.772275  24.36913  55.313164  13.873878  51.616565  40.994521  -31.452169  -125.051095  60.95341  6.133332  -34.473863  -9.281659  2.251838  -3.273605  -6.948522  1.739127  -2.421332  
0.0  89.887642  0.0  1.030433  -1.235957  -95.039272  2.012528  -18.4694  -13.560997  -0.140204  20.277805  37.389832  -2.018335  -1.607648  1.029275  -22.056211  14.253187  -16.816209  -11.79606  12.831637  32.398936  4.610379  3.212524  -2.740789  -0.601795  -1.062631  1.992664  -1.732213  -2.852526  5.475955  -1.732213  -2.852526  5.475956  -6.375055  23.414527  -2.620758  172.164665  54.717982  -144.906918  7.226434  -8.329276  44.976664  86.724344  8.058435  -2.438197  -6.67777  14.706146  23.369645  56.392358  13.750772  52.839075  40.927929  -33.173024  -123.957943  55.524556  3.675721  -36.161744  -9.944468  1.311977  -3.369249  -7.451063  1.039175  -2.50626  
0.0  89.887642  0.0  1.500157  -0.731019  -94.378083  1.138417  -17.346519  -15.526589  1.72277  19.50041  39.681892  -3.656107  -1.985378  1.185811  -23.87896  13.984068  -19.185076  -8.546376  12.857539  34.459422  4.613547  3.363604  -2.793847  -0.175025  -0.688013  1.812972  -0.529801  -1.86627  4.961743  -0.529802  -1.86627  4.961744  -11.156358  24.128189  -1.453254  171.575103  62.486027  -143.745863  9.482893  4.725314  32.798991  90.086873  8.762691  -6.235585  -6.92059  11.83294  23.964533  56.486163  13.603672  52.936551  41.514062  -34.928141  -124.584214  52.970721  4.701773  -38.000033  -11.566884  -0.227791  -2.304605  -8.676157  -0.127273  -1.7335  
